# xmcd CD database file
#
# Track frame offsets:
#	150
#	16482
#	33857
#	50145
#
# Disc length: 897 seconds
#
# Revision: 0
# Processed by: cddbd v1.5PL3 Copyright (c) Steve Scherf et al.
# Submitted via: CDex 1.40Release
#
DISCID=2c037f04
DTITLE=JAMProject - 超重神グラヴィオン
DYEAR=2002
DGENRE=Anime
TTITLE0=嘆きのロザリオ
TTITLE1=合身!ゴッドグラヴィオン
TTITLE2=嘆きのロザリオ(off_vocal)
TTITLE3=合身!ゴッドグラヴィオン(off_vocal)
EXTD=YEAR: 2002
EXTT0=
EXTT1=
EXTT2=
EXTT3=
PLAYORDER=
